<svg id="Layer_1" data-name="Layer 1" xmlns="http://www.w3.org/2000/svg" viewBox="0 0 178 41"><defs><style>.cls-1{fill:#9a0000;}.cls-2{fill:#970200;}</style></defs><title>Artboard 1</title><path class="cls-1" d="M53.14,23.74c.55,1,1.09,1.9,1.64,2.84a4.26,4.26,0,0,1,.35.62c.18.49.5.61,1,.6,2.82,0,5.64,0,8.45,0a2.89,2.89,0,0,0,2.94-2.22,2.77,2.77,0,0,0-2.06-3.24,2.64,2.64,0,0,0-.63,0H57.35c.43-.66.87-1.27,1.25-1.93A7.44,7.44,0,0,0,59.15,19c.08-.27.21-.33.48-.33h4.88a3,3,0,0,0,2.77-1.58A2.62,2.62,0,0,0,66,13.49a4.38,4.38,0,0,0-1.64-.35c-1.74-.05-3.48,0-5.22,0a.61.61,0,0,1-.48-.22,8.68,8.68,0,0,0-2.5-3A1.22,1.22,0,0,1,56,9.76h.47c2.73,0,5.47,0,8.2,0a6,6,0,0,1,5.73,3.74,6,6,0,0,1-1.18,6.84l-.09.12c.36.52.76,1,1.06,1.54a6.26,6.26,0,0,1-5.4,9.24c-3.74,0-7.48,0-11.21,0a.57.57,0,0,1-.57-.33c-1.91-3.29-3.84-6.58-5.76-9.86l-.16-.33c.85,0,1.64.05,2.41,0a7.39,7.39,0,0,0,2.15-.42A3.42,3.42,0,0,0,54,17.63a3.38,3.38,0,0,0-1.88-3.58,4.89,4.89,0,0,0-2.36-.59c-2.16,0-4.31,0-6.46,0a.67.67,0,0,1-.68-.37C42,12,41.31,10.93,40.64,9.79l.41,0h9.3a7.28,7.28,0,0,1,3,13.86Z"/><path class="cls-1" d="M29.38,13.5h11a.53.53,0,0,1,.55.28l7.81,13.47c0,.06.06.13.12.23H29.38Z"/><path class="cls-1" d="M26,9.78l.34,0H38.24a.5.5,0,0,1,.51.28c.39.71.8,1.4,1.24,2.16H28.08V28.84h.58q10.2,0,20.39,0a.93.93,0,0,1,1,.57c.31.61.68,1.2,1,1.84H26Z"/><path d="M125.55,24.37c-2.15,4.44-7.28,5.49-10.35,1.89l-.3,1.66h-4.16l3.09-19.47h4.37l-1.37,8.33A6,6,0,0,1,122,15a4.92,4.92,0,0,1,3.89,3.58,21.36,21.36,0,0,1,2.44-2.41c2.84-2.07,7.38-1.71,9.6.7A6.46,6.46,0,0,1,139.29,23c-.85,3.75-4.36,5.87-8.37,5.44A6,6,0,0,1,125.55,24.37Zm-3.87-3.19a2.62,2.62,0,0,0-3.3-2.7,3.45,3.45,0,0,0-2.48,4.15,2.44,2.44,0,0,0,2.18,2A3.21,3.21,0,0,0,121.68,21.18Zm10.94-2.7a2.47,2.47,0,0,0-1.9.83,4,4,0,0,0-1.11,3.41A2.23,2.23,0,0,0,132,24.79c2.24.07,3.53-2.12,3.22-4.26A2.25,2.25,0,0,0,132.62,18.48Z"/><path class="cls-2" d="M84.49,18.89a2.63,2.63,0,0,0-3.2,2c-.42,1.71-.65,3.48-1,5.22-.11.58-.19,1.17-.29,1.79h-4.4c.21-1.34.42-2.65.63-3.95.42-2.69.85-5.38,1.26-8.07.07-.47.21-.69.74-.67,1.19,0,2.38,0,3.63,0l-.22,2A4.35,4.35,0,0,1,86.35,15l-.26,1.49a17.8,17.8,0,0,1,2.38-1.22c2.69-.92,6-.54,7.85,1.78a.86.86,0,0,1,.13,1c-.4,1.18-.68,2.41-1,3.62a4.86,4.86,0,0,0-.07,1H92.76c-1.38,0-2.75,0-4.12,0-.5,0-.61.18-.56.63a2.14,2.14,0,0,0,2.23,2.16A4.08,4.08,0,0,0,93,24.54l.58-.45L96,26.4A6.4,6.4,0,0,1,93.27,28a9.5,9.5,0,0,1-5.18.14,5.46,5.46,0,0,1-4.18-5.13A8.79,8.79,0,0,1,84.49,18.89Zm9,1.17a2.16,2.16,0,0,0-2.18-2.24c-1.17-.08-2.78,1.09-2.75,2.24Z"/><path class="cls-2" d="M110.13,27.92H106l.16-1.42a19.32,19.32,0,0,1-1.77,1.26,4.93,4.93,0,0,1-7.46-3.46,8.3,8.3,0,0,1,1.67-7.19c2-2.49,6.35-3.21,8.74-.35a1.2,1.2,0,0,0,.21.17l1.29-8.47h4.4C112.17,15,111.15,21.44,110.13,27.92Zm-8.84-6a2.53,2.53,0,0,0,2.76,2.76,3.39,3.39,0,0,0,3.06-4,2.53,2.53,0,0,0-2.59-2.27C102.67,18.32,101.31,19.81,101.29,21.9Z"/><path class="cls-1" d="M78,32.55V30.87h71.73v1.68Z"/><path d="M144.53,18.49c.71-1,1.4-1.9,2.11-2.83.14-.18.36-.41.55-.41,1.56,0,3.12,0,4.84,0-.48.6-.87,1.1-1.27,1.58-1.13,1.37-2.25,2.75-3.39,4.1a.69.69,0,0,0-.08.93c1,1.78,2,3.59,3,5.38.11.21.22.42.37.73-1.64,0-3.2,0-4.76,0-.15,0-.35-.22-.44-.38-.54-1.05-1.06-2.12-1.58-3.16-.77,1-1.55,2.06-2.3,3.12a1,1,0,0,1-.94.45c-1,0-2.08,0-3.22,0,.22-.22.38-.39.55-.54a8.24,8.24,0,0,0,2.57-4.47,3.38,3.38,0,0,1,.81-1.22.63.63,0,0,0,.11-.86,23.72,23.72,0,0,1-1.18-2.56,7.09,7.09,0,0,0-2.1-3,2.41,2.41,0,0,1,.43-.1c1.24,0,2.48,0,3.71,0a1.06,1.06,0,0,1,.75.45C143.61,16.6,144.05,17.54,144.53,18.49Z"/><path class="cls-1" d="M149.7,10.7v1.72H119.9l.22-1.72Z"/><path class="cls-1" d="M78,12.46V10.71h28.41a.68.68,0,0,1,0,.19c-.11,1.56-.11,1.56-1.67,1.56H78Z"/></svg>